<?xml version="1.0" encoding="UTF-8"?>
<svg xmlns="http://www.w3.org/2000/svg" width="60" height="60" viewBox="0 0 60 60" fill="none"
  version="1.2" baseProfile="tiny-ps">
  <title>Logto</title>
  <g>
    <path fill-rule="evenodd"
      d="M10 13.495C10 12.1159 10 11.4263 10.2674 10.8713C10.5031 10.3822 10.8821 9.96763 11.3593 9.67702C11.9008 9.34726 12.6208 9.24937 14.0606 9.05361L34.5958 6.2616C36.4598 6.00817 37.3918 5.88145 38.1161 6.149C38.7518 6.38387 39.2824 6.81992 39.6179 7.38326C40 8.025 40 8.91768 40 10.703V49.297C40 51.0823 40 51.975 39.6179 52.6167C39.2824 53.1801 38.7518 53.6161 38.1161 53.851C37.3918 54.1185 36.4598 53.9918 34.5959 53.7384H34.5959H34.5958L14.0606 50.9464L14.0606 50.9464C12.6207 50.7506 11.9008 50.6527 11.3593 50.323C10.8821 50.0324 10.5031 49.6178 10.2674 49.1287C10 48.5737 10 47.8841 10 46.505V13.495ZM32 26.5078C32 26.0879 32 25.8779 32.0705 25.7119C32.1326 25.5657 32.2323 25.4436 32.3567 25.3611C32.4979 25.2674 32.6847 25.2484 33.0583 25.2104L34.731 25.0402C35.1712 24.9954 35.3912 24.973 35.5611 25.0552C35.7104 25.1273 35.8338 25.2535 35.9115 25.4134C36 25.5954 36 25.8428 36 26.3376V33.6624C36 34.1572 36 34.4046 35.9115 34.5866C35.8338 34.7465 35.7104 34.8727 35.5611 34.9448C35.3912 35.027 35.1712 35.0046 34.731 34.9598L33.0583 34.7896C32.6847 34.7516 32.4979 34.7326 32.3567 34.6389C32.2323 34.5564 32.1326 34.4343 32.0705 34.2881C32 34.1221 32 33.9121 32 33.4922V26.5078ZM45.6444 11H43V50H45.6444C47.169 50 47.9313 50 48.5136 49.7024C49.0259 49.4407 49.4423 49.0231 49.7033 48.5094C50 47.9254 50 47.1609 50 45.632V15.368C50 13.8391 50 13.0746 49.7033 12.4906C49.4423 11.9769 49.0259 11.5593 48.5136 11.2976C47.9313 11 47.169 11 45.6444 11Z"
      fill="url(#paint0_linear_3203_6776)"></path>
  </g>
  <defs>
    <linearGradient id="paint0_linear_3203_6776" x1="-2.38095" y1="39.1953" x2="46.8896"
      y2="19.0537" gradientUnits="userSpaceOnUse">
      <stop stop-color="#4B2EFB"></stop>
      <stop offset="1" stop-color="#E65FFC"></stop>
    </linearGradient>
  </defs>
</svg>
